<svg id="_0552_calculator" xmlns="http://www.w3.org/2000/svg" viewBox="0 0 500 500" data-imageid="calculator-24" imageName="Calculator" class="illustrations_image" style="width: 159px;"><defs><style>.cls-1_calculator-24,.cls-2_calculator-24,.cls-3_calculator-24,.cls-4_calculator-24{fill:#fff;}.cls-5_calculator-24{fill:#f4a28c;}.cls-6_calculator-24{fill:#a5a5a5;}.cls-7_calculator-24{opacity:.03;}.cls-7_calculator-24,.cls-8_calculator-24{fill:#000001;}.cls-9_calculator-24,.cls-10_calculator-24{fill:#e6e6e6;}.cls-10_calculator-24{opacity:.3;}.cls-11_calculator-24{opacity:.2;}.cls-11_calculator-24,.cls-12_calculator-24{fill:#ffd200;}.cls-2_calculator-24{opacity:.44;}.cls-13_calculator-24{opacity:.58;}.cls-13_calculator-24,.cls-14_calculator-24,.cls-15_calculator-24{fill:#68e1fd;}.cls-3_calculator-24{opacity:.46;}.cls-4_calculator-24{opacity:.87;}.cls-16_calculator-24{fill:#24285b;}.cls-8_calculator-24{opacity:.08;}.cls-14_calculator-24{opacity:.73;}</style></defs><g id="bg_calculator-24"><path class="cls-10_calculator-24" d="m122.4,46.93c-48.31,23.04-80.96,46.88-88.03,117.55-5.95,59.55,2.02,177.73,85.76,196.48,162.96,36.48,314.41,31.41,343.75-69.56,30.08-103.53,39.36-210.45-51.93-235.97C347.39,37.37,216.75,1.94,122.4,46.93Z"/><ellipse class="cls-7_calculator-24" cx="232.64" cy="444.34" rx="217.53" ry="30.61"/></g><g id="calculator_calculator-24"><rect class="cls-9_calculator-24" x="142.03" y="102.09" width="261.72" height="324.9"/><rect class="cls-6_calculator-24" x="142.03" y="102.09" width="261.72" height="92.76"/><rect class="cls-2_calculator-24" x="162.74" y="116.17" width="220.31" height="64.6" rx="6.01" ry="6.01"/><rect class="cls-8_calculator-24" x="159.98" y="218.87" width="51.77" height="37.74"/><rect class="cls-8_calculator-24" x="218.46" y="218.87" width="51.77" height="37.74"/><rect class="cls-8_calculator-24" x="276.94" y="218.87" width="51.77" height="37.74"/><rect class="cls-8_calculator-24" x="335.42" y="218.87" width="51.77" height="37.74"/><rect class="cls-8_calculator-24" x="159.98" y="265.84" width="51.77" height="37.74"/><rect class="cls-8_calculator-24" x="218.46" y="265.84" width="51.77" height="37.74"/><rect class="cls-8_calculator-24" x="276.94" y="265.84" width="51.77" height="37.74"/><rect class="cls-8_calculator-24" x="335.42" y="265.84" width="51.77" height="37.74"/><rect class="cls-8_calculator-24" x="159.98" y="312.81" width="51.77" height="37.74"/><rect class="cls-8_calculator-24" x="218.46" y="312.81" width="51.77" height="37.74"/><rect class="cls-8_calculator-24" x="276.94" y="312.81" width="51.77" height="37.74"/><rect class="cls-4_calculator-24" x="159.98" y="359.79" width="110.25" height="37.74"/><rect class="cls-4_calculator-24" x="276.94" y="359.79" width="51.77" height="37.74"/><rect class="cls-12_calculator-24" x="335.42" y="312.81" width="51.77" height="84.71"/><rect class="cls-9_calculator-24" x="249.06" y="90.76" width="106.06" height="11.33" transform="translate(604.19 192.85) rotate(-180)"/><rect class="cls-6_calculator-24" x="249.06" y="79.38" width="93.42" height="11.33" transform="translate(591.54 170.09) rotate(-180)"/><path class="cls-13_calculator-24 targetColor" d="m214.32,86.19s-12.79-3.49-15.57-15.39c0,0,19.81-4,20.37,16.44l-4.81-1.05Z" style="fill: rgb(104, 225, 253);"/><path class="cls-14_calculator-24 targetColor" d="m215.89,84.92s-8.93-14.12-1.07-27.33c0,0,15.06,9.57,8.37,27.36l-7.3-.03Z" style="fill: rgb(104, 225, 253);"/><path class="cls-15_calculator-24 targetColor" d="m218.19,84.93s4.72-14.91,18.99-17.74c0,0,2.67,9.68-9.24,17.78l-9.75-.04Z" style="fill: rgb(104, 225, 253);"/><polygon class="cls-16_calculator-24" points="208.91 84.6 211.51 102.33 227.83 102.4 230.24 84.69 208.91 84.6"/></g><g id="person_calculator-24"><circle class="cls-11_calculator-24" cx="239.87" cy="234.87" r="15.7"/><path class="cls-8_calculator-24" d="m242.6,256.77l-36.07,53.5-29.97-6.59-27.94-42.81v67.71c14.8,12.46,36.09,27.1,50.43,22.84,23.98-7.11,59.31-41.46,43.56-94.65Z"/><circle class="cls-12_calculator-24" cx="239.87" cy="234.87" r="7.87"/><path class="cls-15_calculator-24 targetColor" d="m64.44,242.41s-36.24,27.21-16.93,85.64,60.6,29.97,60.6,29.97v-47.76l-43.67-67.86Z" style="fill: rgb(104, 225, 253);"/><path class="cls-3_calculator-24" d="m64.44,242.41s-36.24,27.21-16.93,85.64,60.6,29.97,60.6,29.97v-47.76l-43.67-67.86Z"/><path class="cls-15_calculator-24 targetColor" d="m156.29,444.46l7.28,5.69c1.29,1.01.57,3.07-1.06,3.07h-9.22c-2.72,0-4.93-2.21-4.93-4.93v-3.84h7.93Z" style="fill: rgb(104, 225, 253);"/><path class="cls-15_calculator-24 targetColor" d="m78.51,444.46l-7.28,5.69c-1.29,1.01-.57,3.07,1.06,3.07h9.22c2.72,0,4.93-2.21,4.93-4.93v-3.84s-7.93,0-7.93,0Z" style="fill: rgb(104, 225, 253);"/><path class="cls-5_calculator-24" d="m108.11,234.87l1.25-20.63s1.47-13.28,8.13-10.87c6.65,2.4,13.59,15.48,10,19.55-1.94,2.2-3.97.86-6.57,1.1-2.24.21-1.85-.13-1.85,2.12v7.89l-10.96.84Z"/><path class="cls-15_calculator-24 targetColor" d="m101.49,233.86s-41.42-3.69-46.84,24.27c-5.42,27.96,33.14,80.76,33.14,80.76l53.72-2.09s83.45-117.22-40.02-102.94Z" style="fill: rgb(104, 225, 253);"/><path class="cls-8_calculator-24" d="m138.03,245.15s-32.12,19.39-16.36,48.92c10.12,18.95-15.77,44.12-15.77,44.12l35.6-1.38s13.03-19.34,15.64-26.86c2.6-7.52-19.12-64.79-19.12-64.79Z"/><polygon class="cls-16_calculator-24" points="87.8 338.89 75.6 444.46 87.54 444.47 114.19 359.72 144.23 444.49 157.9 444.49 141.51 336.8 87.8 338.89"/><path class="cls-16_calculator-24" d="m108.11,226.31h6.46s1.4-11.94,5.97-14.23c4.57-2.29,9.14-6.6,5.08-10.54-4.06-3.94-9.84-8.51-16.6-3.81-6.77,4.7-9.15,16-.91,28.58Z"/><path class="cls-15_calculator-24 targetColor" d="m134.84,251.82c2.67-11.96,17.13-16.79,26.45-8.83,5.13,4.39,10.22,11.14,13.74,21.55,5.1,15.04,11.98,25.85,17.57,32.9,4.3,5.41,12.78,4.48,15.9-1.68l21.39-42.27,12.7,6.99s-14.73,63-36.58,69.09c-19.53,5.45-81.58-31.23-71.18-77.75Z" style="fill: rgb(104, 225, 253);"/><path class="cls-3_calculator-24" d="m134.84,251.82c2.67-11.96,17.13-16.79,26.45-8.83,5.13,4.39,10.22,11.14,13.74,21.55,5.1,15.04,11.98,25.85,17.57,32.9,4.3,5.41,12.78,4.48,15.9-1.68l21.39-42.27,12.7,6.99s-14.73,63-36.58,69.09c-19.53,5.45-81.58-31.23-71.18-77.75Z"/><path class="cls-5_calculator-24" d="m232.64,254.99s2.34-20.69,7.42-22.33c5.08-1.65,0,12.5,0,12.5,0,0,13.97,1.61,2.54,15.32l-9.96-5.49Z"/></g><g id="dollar_calculator-24"><rect class="cls-8_calculator-24" x="347.06" y="217.15" width="56.69" height="71.87"/><rect class="cls-16_calculator-24" x="353.27" y="208.74" width="87.66" height="71.87"/><path class="cls-1_calculator-24" d="m398.93,220.8c1.3,0,1.69.45,1.69,1.75v2.77c5.19.73,8.19,3.33,10.39,7.85.68,1.36.4,2.09-1.13,2.77l-2.77,1.24c-1.3.62-1.92.34-2.65-1.02-1.52-2.94-3.39-4.35-7.23-4.35-4.8,0-7,1.41-7,4.63,0,2.09,1.92,3.39,3.9,3.78.96.23,2.31.45,4.06.62,3.16.28,4.74.51,7.51,1.47,1.41.51,2.48,1.07,3.33,1.81,1.58,1.47,2.99,4.29,2.99,7.9,0,6.15-4.12,10.33-11.41,11.41v2.94c0,1.3-.4,1.75-1.69,1.75h-3.11c-1.3,0-1.75-.45-1.75-1.75v-2.88c-5.65-.73-9.43-3.61-11.29-8.7-.45-1.24,0-2.09,1.3-2.6l2.77-1.02c1.41-.51,2.03-.17,2.65,1.24,1.24,3.16,3.78,4.74,7.62,4.74,5.19,0,7.79-1.64,7.79-4.97,0-1.75-.79-2.82-2.43-3.5-1.64-.62-3.05-.85-5.59-1.07-3.11-.28-4.86-.62-7.57-1.64-1.35-.51-2.43-1.13-3.27-1.86-1.69-1.52-3.05-4.23-3.05-7.68,0-6.1,3.84-10.16,11.07-11.12v-2.77c0-1.3.45-1.75,1.75-1.75h3.11Z"/></g></svg>